# Tiled2Unity generated file. Do not modify by hand.
# Wavefront file for 'OverworldTest__mesh_0002.obj'

# Vertices (Count = 560)
v -24 -1 0
v -25 -1 0
v -25 0 0
v -24 0 0
v -23 -1 0
v -24 -1 0
v -24 0 0
v -23 0 0
v -22 -1 0
v -23 -1 0
v -23 0 0
v -22 0 0
v -21 -1 0
v -22 -1 0
v -22 0 0
v -21 0 0
v -20 -1 0
v -21 -1 0
v -21 0 0
v -20 0 0
v -19 -1 0
v -20 -1 0
v -20 0 0
v -19 0 0
v -18 -1 0
v -19 -1 0
v -19 0 0
v -18 0 0
v -17 -1 0
v -18 -1 0
v -18 0 0
v -17 0 0
v -12 -1 0
v -13 -1 0
v -13 0 0
v -12 0 0
v -11 -1 0
v -12 -1 0
v -12 0 0
v -11 0 0
v -10 -1 0
v -11 -1 0
v -11 0 0
v -10 0 0
v -9 -1 0
v -10 -1 0
v -10 0 0
v -9 0 0
v -8 -1 0
v -9 -1 0
v -9 0 0
v -8 0 0
v -7 -1 0
v -8 -1 0
v -8 0 0
v -7 0 0
v -6 -1 0
v -7 -1 0
v -7 0 0
v -6 0 0
v -5 -1 0
v -6 -1 0
v -6 0 0
v -5 0 0
v -4 -1 0
v -5 -1 0
v -5 0 0
v -4 0 0
v -3 -1 0
v -4 -1 0
v -4 0 0
v -3 0 0
v -2 -1 0
v -3 -1 0
v -3 0 0
v -2 0 0
v -1 -1 0
v -2 -1 0
v -2 0 0
v -1 0 0
v 0 -1 0
v -1 -1 0
v -1 0 0
v 0 0 0
v -24 -2 0
v -25 -2 0
v -25 -1 0
v -24 -1 0
v 0 -2 0
v -1 -2 0
v -1 -1 0
v 0 -1 0
v -24 -3 0
v -25 -3 0
v -25 -2 0
v -24 -2 0
v 0 -3 0
v -1 -3 0
v -1 -2 0
v 0 -2 0
v -24 -4 0
v -25 -4 0
v -25 -3 0
v -24 -3 0
v 0 -4 0
v -1 -4 0
v -1 -3 0
v 0 -3 0
v -24 -5 0
v -25 -5 0
v -25 -4 0
v -24 -4 0
v -4 -5 0
v -5 -5 0
v -5 -4 0
v -4 -4 0
v 0 -5 0
v -1 -5 0
v -1 -4 0
v 0 -4 0
v -24 -6 0
v -25 -6 0
v -25 -5 0
v -24 -5 0
v -22 -6 0
v -23 -6 0
v -23 -5 0
v -22 -5 0
v -9 -6 0
v -10 -6 0
v -10 -5 0
v -9 -5 0
v -8 -6 0
v -9 -6 0
v -9 -5 0
v -8 -5 0
v 0 -6 0
v -1 -6 0
v -1 -5 0
v 0 -5 0
v -24 -7 0
v -25 -7 0
v -25 -6 0
v -24 -6 0
v -9 -7 0
v -10 -7 0
v -10 -6 0
v -9 -6 0
v -8 -7 0
v -9 -7 0
v -9 -6 0
v -8 -6 0
v 0 -7 0
v -1 -7 0
v -1 -6 0
v 0 -6 0
v -24 -8 0
v -25 -8 0
v -25 -7 0
v -24 -7 0
v 0 -8 0
v -1 -8 0
v -1 -7 0
v 0 -7 0
v -24 -9 0
v -25 -9 0
v -25 -8 0
v -24 -8 0
v -8 -9 0
v -9 -9 0
v -9 -8 0
v -8 -8 0
v -7 -9 0
v -8 -9 0
v -8 -8 0
v -7 -8 0
v -6 -9 0
v -7 -9 0
v -7 -8 0
v -6 -8 0
v -5 -9 0
v -6 -9 0
v -6 -8 0
v -5 -8 0
v -4 -9 0
v -5 -9 0
v -5 -8 0
v -4 -8 0
v 0 -9 0
v -1 -9 0
v -1 -8 0
v 0 -8 0
v -24 -10 0
v -25 -10 0
v -25 -9 0
v -24 -9 0
v -8 -10 0
v -9 -10 0
v -9 -9 0
v -8 -9 0
v -7 -10 0
v -8 -10 0
v -8 -9 0
v -7 -9 0
v -6 -10 0
v -7 -10 0
v -7 -9 0
v -6 -9 0
v -5 -10 0
v -6 -10 0
v -6 -9 0
v -5 -9 0
v -4 -10 0
v -5 -10 0
v -5 -9 0
v -4 -9 0
v 0 -10 0
v -1 -10 0
v -1 -9 0
v 0 -9 0
v -24 -11 0
v -25 -11 0
v -25 -10 0
v -24 -10 0
v -10 -11 0
v -11 -11 0
v -11 -10 0
v -10 -10 0
v -9 -11 0
v -10 -11 0
v -10 -10 0
v -9 -10 0
v -8 -11 0
v -9 -11 0
v -9 -10 0
v -8 -10 0
v -7 -11 0
v -8 -11 0
v -8 -10 0
v -7 -10 0
v -6 -11 0
v -7 -11 0
v -7 -10 0
v -6 -10 0
v -5 -11 0
v -6 -11 0
v -6 -10 0
v -5 -10 0
v -4 -11 0
v -5 -11 0
v -5 -10 0
v -4 -10 0
v 0 -11 0
v -1 -11 0
v -1 -10 0
v 0 -10 0
v -24 -12 0
v -25 -12 0
v -25 -11 0
v -24 -11 0
v -10 -12 0
v -11 -12 0
v -11 -11 0
v -10 -11 0
v -9 -12 0
v -10 -12 0
v -10 -11 0
v -9 -11 0
v -8 -12 0
v -9 -12 0
v -9 -11 0
v -8 -11 0
v -7 -12 0
v -8 -12 0
v -8 -11 0
v -7 -11 0
v -6 -12 0
v -7 -12 0
v -7 -11 0
v -6 -11 0
v -5 -12 0
v -6 -12 0
v -6 -11 0
v -5 -11 0
v -4 -12 0
v -5 -12 0
v -5 -11 0
v -4 -11 0
v 0 -12 0
v -1 -12 0
v -1 -11 0
v 0 -11 0
v -24 -13 0
v -25 -13 0
v -25 -12 0
v -24 -12 0
v -19 -13 0
v -20 -13 0
v -20 -12 0
v -19 -12 0
v -10 -13 0
v -11 -13 0
v -11 -12 0
v -10 -12 0
v -9 -13 0
v -10 -13 0
v -10 -12 0
v -9 -12 0
v -8 -13 0
v -9 -13 0
v -9 -12 0
v -8 -12 0
v -7 -13 0
v -8 -13 0
v -8 -12 0
v -7 -12 0
v -6 -13 0
v -7 -13 0
v -7 -12 0
v -6 -12 0
v -5 -13 0
v -6 -13 0
v -6 -12 0
v -5 -12 0
v -4 -13 0
v -5 -13 0
v -5 -12 0
v -4 -12 0
v 0 -13 0
v -1 -13 0
v -1 -12 0
v 0 -12 0
v -24 -14 0
v -25 -14 0
v -25 -13 0
v -24 -13 0
v -22 -14 0
v -23 -14 0
v -23 -13 0
v -22 -13 0
v -21 -14 0
v -22 -14 0
v -22 -13 0
v -21 -13 0
v 0 -14 0
v -1 -14 0
v -1 -13 0
v 0 -13 0
v -24 -15 0
v -25 -15 0
v -25 -14 0
v -24 -14 0
v -22 -15 0
v -23 -15 0
v -23 -14 0
v -22 -14 0
v -21 -15 0
v -22 -15 0
v -22 -14 0
v -21 -14 0
v 0 -15 0
v -1 -15 0
v -1 -14 0
v 0 -14 0
v -24 -16 0
v -25 -16 0
v -25 -15 0
v -24 -15 0
v 0 -19 0
v -1 -19 0
v -1 -18 0
v 0 -18 0
v -24 -20 0
v -25 -20 0
v -25 -19 0
v -24 -19 0
v 0 -20 0
v -1 -20 0
v -1 -19 0
v 0 -19 0
v -24 -21 0
v -25 -21 0
v -25 -20 0
v -24 -20 0
v -8 -21 0
v -9 -21 0
v -9 -20 0
v -8 -20 0
v -7 -21 0
v -8 -21 0
v -8 -20 0
v -7 -20 0
v -4 -21 0
v -5 -21 0
v -5 -20 0
v -4 -20 0
v -3 -21 0
v -4 -21 0
v -4 -20 0
v -3 -20 0
v 0 -21 0
v -1 -21 0
v -1 -20 0
v 0 -20 0
v -24 -22 0
v -25 -22 0
v -25 -21 0
v -24 -21 0
v -18 -22 0
v -19 -22 0
v -19 -21 0
v -18 -21 0
v -17 -22 0
v -18 -22 0
v -18 -21 0
v -17 -21 0
v -8 -22 0
v -9 -22 0
v -9 -21 0
v -8 -21 0
v -7 -22 0
v -8 -22 0
v -8 -21 0
v -7 -21 0
v -4 -22 0
v -5 -22 0
v -5 -21 0
v -4 -21 0
v -3 -22 0
v -4 -22 0
v -4 -21 0
v -3 -21 0
v 0 -22 0
v -1 -22 0
v -1 -21 0
v 0 -21 0
v -24 -23 0
v -25 -23 0
v -25 -22 0
v -24 -22 0
v -18 -23 0
v -19 -23 0
v -19 -22 0
v -18 -22 0
v -17 -23 0
v -18 -23 0
v -18 -22 0
v -17 -22 0
v 0 -23 0
v -1 -23 0
v -1 -22 0
v 0 -22 0
v -24 -24 0
v -25 -24 0
v -25 -23 0
v -24 -23 0
v 0 -24 0
v -1 -24 0
v -1 -23 0
v 0 -23 0
v -24 -25 0
v -25 -25 0
v -25 -24 0
v -24 -24 0
v -23 -25 0
v -24 -25 0
v -24 -24 0
v -23 -24 0
v -22 -25 0
v -23 -25 0
v -23 -24 0
v -22 -24 0
v -21 -25 0
v -22 -25 0
v -22 -24 0
v -21 -24 0
v -20 -25 0
v -21 -25 0
v -21 -24 0
v -20 -24 0
v -19 -25 0
v -20 -25 0
v -20 -24 0
v -19 -24 0
v -18 -25 0
v -19 -25 0
v -19 -24 0
v -18 -24 0
v -17 -25 0
v -18 -25 0
v -18 -24 0
v -17 -24 0
v -16 -25 0
v -17 -25 0
v -17 -24 0
v -16 -24 0
v -15 -25 0
v -16 -25 0
v -16 -24 0
v -15 -24 0
v -14 -25 0
v -15 -25 0
v -15 -24 0
v -14 -24 0
v -13 -25 0
v -14 -25 0
v -14 -24 0
v -13 -24 0
v -12 -25 0
v -13 -25 0
v -13 -24 0
v -12 -24 0
v -11 -25 0
v -12 -25 0
v -12 -24 0
v -11 -24 0
v -10 -25 0
v -11 -25 0
v -11 -24 0
v -10 -24 0
v -9 -25 0
v -10 -25 0
v -10 -24 0
v -9 -24 0
v -8 -25 0
v -9 -25 0
v -9 -24 0
v -8 -24 0
v -7 -25 0
v -8 -25 0
v -8 -24 0
v -7 -24 0
v -6 -25 0
v -7 -25 0
v -7 -24 0
v -6 -24 0
v -5 -25 0
v -6 -25 0
v -6 -24 0
v -5 -24 0
v -4 -25 0
v -5 -25 0
v -5 -24 0
v -4 -24 0
v -3 -25 0
v -4 -25 0
v -4 -24 0
v -3 -24 0
v -2 -25 0
v -3 -25 0
v -3 -24 0
v -2 -24 0
v -1 -25 0
v -2 -25 0
v -2 -24 0
v -1 -24 0
v 0 -25 0
v -1 -25 0
v -1 -24 0
v 0 -24 0

# Texture cooridinates (Count = 85)
vt 0.075 0.4444444
vt 0.1 0.4444444
vt 0.1 0.4722222
vt 0.075 0.4722222
vt 0.125 0.4444444
vt 0.15 0.4444444
vt 0.15 0.4722222
vt 0.125 0.4722222
vt 0.175 0.4722222
vt 0.175 0.5
vt 0.15 0.5
vt 0.2 0.4722222
vt 0.2 0.5
vt 0.175 0.8333333
vt 0.2 0.8333333
vt 0.2 0.8611111
vt 0.175 0.8611111
vt 0.15 0.5277778
vt 0.175 0.5277778
vt 0.175 0.5555556
vt 0.15 0.5555556
vt 0.125 0.5277778
vt 0.125 0.5555556
vt 0.125 0.5
vt 0.25 0.9722222
vt 0.275 0.9722222
vt 0.275 1
vt 0.25 1
vt 0.225 0.9722222
vt 0.225 1
vt 0.2 0.9722222
vt 0.2 1
vt 0.175 0.9722222
vt 0.175 1
vt 0.15 0.9722222
vt 0.15 1
vt 0.25 0.9444444
vt 0.275 0.9444444
vt 0.225 0.9444444
vt 0.2 0.9444444
vt 0.175 0.9444444
vt 0.15 0.9444444
vt 0.35 0.8333333
vt 0.375 0.8333333
vt 0.375 0.8611111
vt 0.35 0.8611111
vt 0.325 0.8333333
vt 0.325 0.8611111
vt 0.25 0.9166667
vt 0.275 0.9166667
vt 0.225 0.9166667
vt 0.2 0.9166667
vt 0.175 0.9166667
vt 0.15 0.9166667
vt 0.35 0.8055556
vt 0.375 0.8055556
vt 0.325 0.8055556
vt 0.25 0.8888889
vt 0.275 0.8888889
vt 0.225 0.8888889
vt 0.2 0.8888889
vt 0.175 0.8888889
vt 0.15 0.8888889
vt 0.35 0.7777778
vt 0.375 0.7777778
vt 0.325 0.7777778
vt 0.25 0.8611111
vt 0.275 0.8611111
vt 0.225 0.8611111
vt 0.15 0.8611111
vt 0.125 0.9444444
vt 0.125 0.9722222
vt 0.1 0.9444444
vt 0.1 0.9722222
vt 0.125 0.9166667
vt 0.1 0.9166667
vt 0.8 0.8888889
vt 0.825 0.8888889
vt 0.825 0.9166667
vt 0.8 0.9166667
vt 0.775 0.8888889
vt 0.775 0.9166667
vt 0.8 0.8611111
vt 0.825 0.8611111
vt 0.775 0.8611111

# Normal
vn 0 0 -1

# Mesh description
g OverworldTest__mesh_0002

# Faces
f 1/1/1 2/2/1 3/3/1 4/4/1
f 5/5/1 6/6/1 7/7/1 8/8/1
f 9/5/1 10/6/1 11/7/1 12/8/1
f 13/5/1 14/6/1 15/7/1 16/8/1
f 17/5/1 18/6/1 19/7/1 20/8/1
f 21/5/1 22/6/1 23/7/1 24/8/1
f 25/5/1 26/6/1 27/7/1 28/8/1
f 29/5/1 30/6/1 31/7/1 32/8/1
f 33/5/1 34/6/1 35/7/1 36/8/1
f 37/5/1 38/6/1 39/7/1 40/8/1
f 41/5/1 42/6/1 43/7/1 44/8/1
f 45/5/1 46/6/1 47/7/1 48/8/1
f 49/5/1 50/6/1 51/7/1 52/8/1
f 53/5/1 54/6/1 55/7/1 56/8/1
f 57/5/1 58/6/1 59/7/1 60/8/1
f 61/5/1 62/6/1 63/7/1 64/8/1
f 65/5/1 66/6/1 67/7/1 68/8/1
f 69/5/1 70/6/1 71/7/1 72/8/1
f 73/5/1 74/6/1 75/7/1 76/8/1
f 77/5/1 78/6/1 79/7/1 80/8/1
f 81/2/1 82/5/1 83/8/1 84/3/1
f 85/7/1 86/9/1 87/10/1 88/11/1
f 89/9/1 90/12/1 91/13/1 92/10/1
f 93/7/1 94/9/1 95/10/1 96/11/1
f 97/9/1 98/12/1 99/13/1 100/10/1
f 101/7/1 102/9/1 103/10/1 104/11/1
f 105/9/1 106/12/1 107/13/1 108/10/1
f 109/7/1 110/9/1 111/10/1 112/11/1
f 113/14/1 114/15/1 115/16/1 116/17/1
f 117/9/1 118/12/1 119/13/1 120/10/1
f 121/7/1 122/9/1 123/10/1 124/11/1
f 125/14/1 126/15/1 127/16/1 128/17/1
f 129/18/1 130/19/1 131/20/1 132/21/1
f 133/22/1 134/18/1 135/21/1 136/23/1
f 137/9/1 138/12/1 139/13/1 140/10/1
f 141/7/1 142/9/1 143/10/1 144/11/1
f 145/11/1 146/10/1 147/19/1 148/18/1
f 149/24/1 150/11/1 151/18/1 152/22/1
f 153/9/1 154/12/1 155/13/1 156/10/1
f 157/7/1 158/9/1 159/10/1 160/11/1
f 161/9/1 162/12/1 163/13/1 164/10/1
f 165/7/1 166/9/1 167/10/1 168/11/1
f 169/25/1 170/26/1 171/27/1 172/28/1
f 173/29/1 174/25/1 175/28/1 176/30/1
f 177/31/1 178/29/1 179/30/1 180/32/1
f 181/33/1 182/31/1 183/32/1 184/34/1
f 185/35/1 186/33/1 187/34/1 188/36/1
f 189/9/1 190/12/1 191/13/1 192/10/1
f 193/7/1 194/9/1 195/10/1 196/11/1
f 197/37/1 198/38/1 199/26/1 200/25/1
f 201/39/1 202/37/1 203/25/1 204/29/1
f 205/40/1 206/39/1 207/29/1 208/31/1
f 209/41/1 210/40/1 211/31/1 212/33/1
f 213/42/1 214/41/1 215/33/1 216/35/1
f 217/9/1 218/12/1 219/13/1 220/10/1
f 221/7/1 222/9/1 223/10/1 224/11/1
f 225/43/1 226/44/1 227/45/1 228/46/1
f 229/47/1 230/43/1 231/46/1 232/48/1
f 233/49/1 234/50/1 235/38/1 236/37/1
f 237/51/1 238/49/1 239/37/1 240/39/1
f 241/52/1 242/51/1 243/39/1 244/40/1
f 245/53/1 246/52/1 247/40/1 248/41/1
f 249/54/1 250/53/1 251/41/1 252/42/1
f 253/9/1 254/12/1 255/13/1 256/10/1
f 257/7/1 258/9/1 259/10/1 260/11/1
f 261/55/1 262/56/1 263/44/1 264/43/1
f 265/57/1 266/55/1 267/43/1 268/47/1
f 269/58/1 270/59/1 271/50/1 272/49/1
f 273/60/1 274/58/1 275/49/1 276/51/1
f 277/61/1 278/60/1 279/51/1 280/52/1
f 281/62/1 282/61/1 283/52/1 284/53/1
f 285/63/1 286/62/1 287/53/1 288/54/1
f 289/9/1 290/12/1 291/13/1 292/10/1
f 293/7/1 294/9/1 295/10/1 296/11/1
f 297/14/1 298/15/1 299/16/1 300/17/1
f 301/64/1 302/65/1 303/56/1 304/55/1
f 305/66/1 306/64/1 307/55/1 308/57/1
f 309/67/1 310/68/1 311/59/1 312/58/1
f 313/69/1 314/67/1 315/58/1 316/60/1
f 317/16/1 318/69/1 319/60/1 320/61/1
f 321/17/1 322/16/1 323/61/1 324/62/1
f 325/70/1 326/17/1 327/62/1 328/63/1
f 329/9/1 330/12/1 331/13/1 332/10/1
f 333/7/1 334/9/1 335/10/1 336/11/1
f 337/71/1 338/42/1 339/35/1 340/72/1
f 341/73/1 342/71/1 343/72/1 344/74/1
f 345/9/1 346/12/1 347/13/1 348/10/1
f 349/7/1 350/9/1 351/10/1 352/11/1
f 353/75/1 354/54/1 355/42/1 356/71/1
f 357/76/1 358/75/1 359/71/1 360/73/1
f 361/9/1 362/12/1 363/13/1 364/10/1
f 365/7/1 366/9/1 367/10/1 368/11/1
f 369/9/1 370/12/1 371/13/1 372/10/1
f 373/7/1 374/9/1 375/10/1 376/11/1
f 377/9/1 378/12/1 379/13/1 380/10/1
f 381/7/1 382/9/1 383/10/1 384/11/1
f 385/77/1 386/78/1 387/79/1 388/80/1
f 389/81/1 390/77/1 391/80/1 392/82/1
f 393/71/1 394/42/1 395/35/1 396/72/1
f 397/73/1 398/71/1 399/72/1 400/74/1
f 401/9/1 402/12/1 403/13/1 404/10/1
f 405/7/1 406/9/1 407/10/1 408/11/1
f 409/77/1 410/78/1 411/79/1 412/80/1
f 413/81/1 414/77/1 415/80/1 416/82/1
f 417/83/1 418/84/1 419/78/1 420/77/1
f 421/85/1 422/83/1 423/77/1 424/81/1
f 425/75/1 426/54/1 427/42/1 428/71/1
f 429/76/1 430/75/1 431/71/1 432/73/1
f 433/9/1 434/12/1 435/13/1 436/10/1
f 437/7/1 438/9/1 439/10/1 440/11/1
f 441/83/1 442/84/1 443/78/1 444/77/1
f 445/85/1 446/83/1 447/77/1 448/81/1
f 449/9/1 450/12/1 451/13/1 452/10/1
f 453/7/1 454/9/1 455/10/1 456/11/1
f 457/9/1 458/12/1 459/13/1 460/10/1
f 461/2/1 462/5/1 463/8/1 464/3/1
f 465/8/1 466/7/1 467/11/1 468/24/1
f 469/8/1 470/7/1 471/11/1 472/24/1
f 473/8/1 474/7/1 475/11/1 476/24/1
f 477/8/1 478/7/1 479/11/1 480/24/1
f 481/8/1 482/7/1 483/11/1 484/24/1
f 485/8/1 486/7/1 487/11/1 488/24/1
f 489/8/1 490/7/1 491/11/1 492/24/1
f 493/8/1 494/7/1 495/11/1 496/24/1
f 497/8/1 498/7/1 499/11/1 500/24/1
f 501/8/1 502/7/1 503/11/1 504/24/1
f 505/8/1 506/7/1 507/11/1 508/24/1
f 509/8/1 510/7/1 511/11/1 512/24/1
f 513/8/1 514/7/1 515/11/1 516/24/1
f 517/8/1 518/7/1 519/11/1 520/24/1
f 521/8/1 522/7/1 523/11/1 524/24/1
f 525/8/1 526/7/1 527/11/1 528/24/1
f 529/8/1 530/7/1 531/11/1 532/24/1
f 533/8/1 534/7/1 535/11/1 536/24/1
f 537/8/1 538/7/1 539/11/1 540/24/1
f 541/8/1 542/7/1 543/11/1 544/24/1
f 545/8/1 546/7/1 547/11/1 548/24/1
f 549/8/1 550/7/1 551/11/1 552/24/1
f 553/8/1 554/7/1 555/11/1 556/24/1
f 557/1/1 558/2/1 559/3/1 560/4/1

